# xmcd
#
# Track frame offsets:
#	150
#	10964
#	21631
#	39593
#	49867
#	60030
#	69053
#	83426
#	95467
#	104487
#	115415
#	125765
#	139693
#	151342
#
# Disc length: 2169 seconds
#
# Revision: 1
# Processed by: cddbd v1.5.2PL0 Copyright (c) Steve Scherf et al.
# Submitted via: audiograbber 1.83.01
#
DISCID=b108770e
DTITLE=Golden Earring - Complete Studio Recordings [CD 02) - Winter Harvest [re
DTITLE=mastered 2017]
DYEAR=1967
DGENRE=Rock
TTITLE0=Golden Earrings - Another Man In Town [mono]
TTITLE1=Golden Earrings - Smoking Cigarettes [mono]
TTITLE2=Golden Earrings - In My House [mono]
TTITLE3=Golden Earrings - Don't Wanna Lose That Girl [mono]
TTITLE4=Golden Earrings - Impeccable Girl [mono]
TTITLE5=Golden Earrings - Tears And Lies [mono]
TTITLE6=Golden Earrings - You've Got The Intention To Hurt Me [mono]
TTITLE7=Golden Earrings - Dream [mono]
TTITLE8=Golden Earrings - You Break My Heart [mono]
TTITLE9=Golden Earrings - Baby Don't Make Me Nervous [mono]
TTITLE10=Golden Earrings - Call Me [mono]
TTITLE11=Golden Earrings - Happy And Young Together [mono]
TTITLE12=Golden Earrings - Lionel The Miser [mono]
TTITLE13=Golden Earrings - There Will Be A Tomorrow [mono]
EXTD=
EXTT0=
EXTT1=
EXTT2=
EXTT3=
EXTT4=
EXTT5=
EXTT6=
EXTT7=
EXTT8=
EXTT9=
EXTT10=
EXTT11=
EXTT12=
EXTT13=
PLAYORDER=
